<?xml version="1.0" standalone="no"?>
<!DOCTYPE svg PUBLIC "-//W3C//DTD SVG 20010904//EN"
 "http://www.w3.org/TR/2001/REC-SVG-20010904/DTD/svg10.dtd">
<svg version="1.0" xmlns="http://www.w3.org/2000/svg"
 width="251.000000pt" height="251.000000pt" viewBox="0 0 251.000000 251.000000"
 preserveAspectRatio="xMidYMid meet">
<metadata>
Created by potrace 1.11, written by Peter Selinger 2001-2013
</metadata>
<g transform="translate(0.000000,251.000000) scale(0.100000,-0.100000)"
fill="#000000" stroke="none">
<path d="M670 1260 l0 -742 363 4 c338 4 367 6 435 27 255 76 426 252 493 506
30 112 30 298 0 410 -56 213 -186 372 -376 461 -141 65 -154 67 -552 71 l-363
5 0 -742z m688 505 c83 -20 134 -47 194 -103 56 -53 88 -103 120 -188 19 -51
22 -79 22 -214 0 -135 -3 -163 -22 -214 -32 -85 -64 -135 -120 -188 -102 -95
-184 -118 -429 -118 l-173 0 0 520 0 520 173 0 c116 0 192 -5 235 -15z"/>
</g>
</svg>
